<?xml version="1.0" encoding="UTF-8"?>
<svg width="980px" height="257px" viewBox="0 0 980 257" version="1.1" xmlns="http://www.w3.org/2000/svg" xmlns:xlink="http://www.w3.org/1999/xlink">
    <!-- Generator: Sketch 51.2 (57519) - http://www.bohemiancoding.com/sketch -->
    <title>Artboard</title>
    <desc>Created with Sketch.</desc>
    <defs></defs>
    <g id="Artboard" stroke="none" stroke-width="1" fill="none" fill-rule="evenodd">
        <g id="webpack-logo-on-white-bg" transform="translate(368.000000, 57.000000)" fill-rule="nonzero">
            <polygon id="Shape" fill="#FFFFFF" points="69.4683897 0 138.936779 35.995889 138.936779 108.004111 69.4683897 144 0 108.004111 0 35.995889"></polygon>
            <path d="M126.437964,105.39381 L71.6703629,133.754204 L71.6703629,111.67056 L105.794653,94.4834388 L126.437964,105.39381 Z M130.189662,102.288298 L130.189662,42.9877989 L110.156675,53.5859762 L110.156675,91.706552 L130.189662,102.288298 Z M12.0919726,105.39381 L66.8595739,133.754204 L66.8595739,111.67056 L32.7173328,94.4834388 L12.0919726,105.39381 Z M8.3402752,102.288298 L8.3402752,42.9877989 L28.3732621,53.5859762 L28.3732621,91.706552 L8.3402752,102.288298 Z M10.6918176,39.1428787 L66.8595739,10.0595084 L66.8595739,31.4037446 L30.8684101,49.5274494 L30.5811988,49.6753309 L10.6918176,39.1428787 Z M127.838119,39.1428787 L71.6703629,10.0595084 L71.6703629,31.4037446 L107.661527,49.5110181 L107.948738,49.6588997 L127.838119,39.1428787 Z" id="Shape" fill="#8ED6FB"></path>
            <path d="M67.0612371,106.556274 L33.3611008,89.6139984 L33.3611008,56.0742024 L67.0612371,73.8537419 L67.0612371,106.556274 Z M71.8755423,106.556274 L105.575679,89.6304154 L105.575679,56.0742024 L71.8755423,73.8537419 L71.8755423,106.556274 Z M35.6425066,52.199806 L69.4683897,35.2082794 L103.294273,52.199806 L69.4683897,70.0450132 L35.6425066,52.199806 Z" id="Shape" fill="#1C78C0"></path>
            <path d="M209.097709,94.752482 L223.906963,94.752482 L239.003426,48.7209014 L224.571135,48.7209014 L215.631731,81.3799957 L206.099957,48.7209014 L193.606332,48.7209014 L183.984805,81.3799957 L175.135154,48.7209014 L160.702864,48.7209014 L175.709574,94.752482 L190.518827,94.752482 L199.853145,65.264014 L209.097709,94.752482 Z M239.775302,71.8681166 C239.775302,85.684162 250.061002,95.9024501 266.234502,95.9024501 C278.746078,95.9024501 285.477557,89.0354977 287.398272,85.7827307 L278.638374,79.7043279 C277.202325,81.6428455 273.253191,85.3391716 266.414008,85.3391716 C259.000406,85.3391716 253.615223,80.9364366 253.328013,74.7758931 L288.744568,74.7758931 C288.834321,73.8887749 288.834321,73.0180847 288.834321,72.1309665 C288.834321,57.0828123 279.98467,47.5709333 264.40354,47.5709333 C250.061002,47.5709333 239.775302,57.9535025 239.775302,71.8681166 Z M253.722927,66.8411132 C254.297346,61.567688 258.336234,57.5099434 264.600997,57.5099434 C270.668303,57.5099434 275.084153,61.2062694 275.371363,66.8411132 L253.722927,66.8411132 Z M293.842541,94.752482 L306.354117,94.752482 L306.354117,90.0047565 C307.700412,91.4997151 312.708633,95.9024501 321.271074,95.9024501 C335.703365,95.9024501 345.899311,85.96344 345.899311,71.785976 C345.899311,57.5263715 336.475241,47.5873614 322.04295,47.5873614 C313.390756,47.5873614 308.382536,51.9900964 307.125993,53.5671956 L307.125993,31.1099612 L293.860492,31.1099612 L293.860492,94.752482 L293.842541,94.752482 Z M306.731079,71.8681166 C306.731079,63.2433558 312.313719,58.314921 319.619618,58.314921 C327.32043,58.314921 332.508156,63.8676242 332.508156,71.8681166 C332.508156,80.0493183 327.122973,85.1584623 319.619618,85.1584623 C311.541843,85.1584623 306.731079,79.1622001 306.731079,71.8681166 Z M351.069087,111.213454 L364.334588,111.213454 L364.334588,89.9883284 C365.591131,91.4832869 370.581401,95.886022 379.251546,95.886022 C393.683836,95.886022 403.107907,85.9470119 403.107907,71.6874073 C403.107907,57.6085121 392.91196,47.5709333 378.479669,47.5709333 C369.917228,47.5709333 364.909008,51.9736683 363.562712,53.5507674 L363.562712,48.7044733 L351.051137,48.7044733 L351.051137,111.213454 L351.069087,111.213454 Z M363.957625,71.6052668 C363.957625,64.2947552 368.768389,58.314921 376.846164,58.314921 C384.349519,58.314921 389.734702,63.4240651 389.734702,71.6052668 C389.734702,79.6221873 384.546976,85.1584623 376.846164,85.1584623 C369.540265,85.1584623 363.957625,80.2300276 363.957625,71.6052668 Z M405.513289,80.4928774 C405.513289,90.1690377 414.165483,95.9024501 424.36143,95.9024501 C430.141526,95.9024501 433.982957,94.325351 436.585795,91.7625649 L437.447425,94.752482 L449.187124,94.752482 L449.187124,65.6090045 C449.187124,55.3085758 444.37636,47.5709333 428.220811,47.5709333 C420.519999,47.5709333 412.926891,50.2158599 408.403337,53.0250677 L413.411557,61.3048381 C417.163235,59.5470297 421.776542,58.0520712 426.784762,58.0520712 C432.654612,58.0520712 435.921623,60.7791384 435.921623,64.836883 L435.921623,67.8268001 C434.09066,66.676832 430.141526,65.2804422 425.043553,65.2804422 C413.303854,65.264014 405.513289,71.4245575 405.513289,80.4928774 Z M418.77879,80.1314589 C418.77879,76.3529922 422.333011,73.7080656 427.430984,73.7080656 C432.528957,73.7080656 436.190882,76.0901424 436.190882,80.1314589 C436.190882,84.0084942 432.528957,86.4727116 427.538688,86.4727116 C422.548418,86.4727116 418.77879,83.9263536 418.77879,80.1314589 Z M481.408469,85.1584623 C473.043485,85.1584623 467.083882,79.6057592 467.083882,71.785976 C467.083882,64.3933239 472.379312,58.314921 480.941754,58.314921 C486.614147,58.314921 490.473528,60.861279 492.681453,62.7176561 L496.43313,52.499368 C493.166119,50.2158599 487.960442,47.5709333 480.564791,47.5709333 C465.270871,47.5709333 453.818381,57.8713619 453.818381,71.8681166 C453.818381,85.8648713 464.983661,95.9024501 480.654544,95.9024501 C487.960442,95.9024501 493.453329,93.0932423 496.325427,90.9740153 L492.771206,81.0350053 C490.54533,82.694245 486.506443,85.1584623 481.408469,85.1584623 Z M501.315696,94.752482 L514.581198,94.752482 L514.581198,70.9809984 L531.41887,94.752482 L547,94.752482 L527.954402,69.5681804 L545.653704,48.7044733 L530.736747,48.7044733 L514.581198,68.0732219 L514.581198,31.1099612 L501.315696,31.1099612 L501.315696,94.752482 Z" id="Shape" fill="#1A1C1C"></path>
        </g>
        <g id="pwa-logo" transform="translate(66.000000, 64.000000)" fill-rule="nonzero">
            <rect id="Rectangle-path" fill="#FFFFFF" x="0" y="0" width="192" height="132"></rect>
            <g id="Group" transform="translate(22.372881, 16.220339)">
                <g transform="translate(25.701902, 0.000000)" id="Shape">
                    <polygon fill="#0096FF" points="0.18197697 0.0132249123 95.8718463 0.0132249123 87.3286842 89.4956818 48.5281925 99.7325206 8.93506922 89.4982614"></polygon>
                    <polygon fill-opacity="0.301961" fill="#FFFFFF" points="48.2895588 7.37912274 87.4054147 7.37912274 79.7878962 83.9647792 48.3689158 92.0378229"></polygon>
                </g>
                <g transform="translate(0.000000, 23.044711)" fill="#3D3D3D" id="Shape">
                    <polygon points="108.480787 44.5275403 112.735296 34.665436 125.019304 34.665436 119.189099 19.7049474 126.48056 2.80302791 147.363825 53.6310609 131.963132 53.6310609 128.394132 44.5275403"></polygon>
                    <polygon points="95.3418618 50.8534854 117.697826 0.0252803916 102.876459 0.0252803916 87.5834519 32.8715601 76.7085457 0.025452367 65.3164122 0.025452367 53.6398693 32.8715601 45.4053176 17.9041924 37.9532669 38.9498605 45.5191939 50.8534854 60.1053047 50.8534854 70.6567797 21.3973578 80.7171044 50.8534854"></polygon>
                    <path d="M14.1624984,33.4050279 L23.2917389,33.4050279 C26.0570384,33.4050279 28.5195433,33.1221283 30.6792535,32.556329 L33.0400763,25.8886688 L39.6385237,7.25375263 C39.135742,6.52320091 38.5616703,5.83254749 37.9164963,5.18179237 C34.528723,1.74417504 29.5718204,0.025452367 23.0459762,0.025452367 L0.0938025618,0.025452367 L0.0938025618,50.8534854 L14.1624984,50.8534854 L14.1624984,33.4050279 Z M26.246332,11.7189233 C27.5696985,12.939777 28.2313818,14.5735438 28.2313818,16.6203957 C28.2313818,18.6828973 27.6494307,20.3185558 26.4857161,21.5277152 C25.2098137,22.8711875 22.8606223,23.5427516 19.4383297,23.5427516 L14.1624984,23.5427516 L14.1624984,9.88755669 L19.4771639,9.88755669 C22.6666386,9.88755669 24.9231531,10.4978976 26.246332,11.7189233 Z"></path>
                </g>
            </g>
        </g>
    </g>
</svg>